<svg version="1.1" xmlns="http://www.w3.org/2000/svg" xmlns:xlink="http://www.w3.org/1999/xlink" width="676.21338" height="493.38703" viewBox="0,0,676.21338,493.38703"><g transform="translate(96.47668,66.69352)"><g data-paper-data="{&quot;isPaintingLayer&quot;:true}" fill-rule="nonzero" stroke-linecap="butt" stroke-linejoin="miter" stroke-miterlimit="10" stroke-dasharray="" stroke-dashoffset="0" style="mix-blend-mode: normal"><path d="M-85.37869,426.19352v-492.38703h650.75739v492.38703z" fill="#5cb1d6" stroke-opacity="0.15" stroke="#000000" stroke-width="1"/><path d="M282.74865,59.36783c0,-3.50956 1.57852,-5.26692 4.73505,-5.26692h4.73505c2.3674,0 3.55123,1.31738 4.7348,2.63476l1.77574,1.97477c1.18357,1.31738 2.3674,2.63217 4.7348,2.63217h9.46985c2.36766,0 3.55123,-1.31479 4.73505,-2.63217l1.77548,-1.97477c1.18383,-1.31738 2.36766,-2.63476 4.73505,-2.63476h95.88258c3.15653,0 4.73505,1.75737 4.73505,5.26692v32.91892c0,3.51214 -1.57852,5.26692 -4.73505,5.26692h-95.88258c-2.3674,0 -3.55123,1.31738 -4.73505,2.63217l-1.77548,1.97736c-1.18383,1.31479 -2.3674,2.63217 -4.73505,2.63217h-9.46985c-2.3674,0 -3.55123,-1.31738 -4.7348,-2.63217l-1.77574,-1.97736c-1.18357,-1.31479 -2.3674,-2.63217 -4.7348,-2.63217h-4.73505c-2.61509,0 -4.73505,-2.35782 -4.73505,-5.26692z" fill="none" stroke-opacity="0.25" stroke="#000000" stroke-width="4"/><path d="M282.74865,177.41937c0,-3.50956 1.57852,-5.26692 4.73505,-5.26692h4.73505c2.3674,0 3.55123,1.31738 4.7348,2.63476l1.77574,1.97477c1.18357,1.31738 2.3674,2.63217 4.7348,2.63217h9.46985c2.36766,0 3.55123,-1.31479 4.73505,-2.63217l1.77548,-1.97477c1.18383,-1.31738 2.36766,-2.63476 4.73505,-2.63476h95.88258c3.15653,0 4.73505,1.75737 4.73505,5.26692v32.91892c0,3.51214 -1.57852,5.26692 -4.73505,5.26692h-95.88258c-2.3674,0 -3.55123,1.31738 -4.73505,2.63217l-1.77548,1.97736c-1.18383,1.31479 -2.3674,2.63217 -4.73505,2.63217h-9.46985c-2.3674,0 -3.55123,-1.31738 -4.7348,-2.63217l-1.77574,-1.97736c-1.18357,-1.31479 -2.3674,-2.63217 -4.7348,-2.63217h-4.73505c-2.61509,0 -4.73505,-2.35782 -4.73505,-5.26692z" fill="none" stroke-opacity="0.25" stroke="#000000" stroke-width="4"/><path d="M282.74865,295.47092c0,-3.50956 1.57852,-5.26692 4.73505,-5.26692h4.73505c2.3674,0 3.55123,1.31738 4.7348,2.63476l1.77574,1.97477c1.18357,1.31738 2.3674,2.63476 4.7348,2.63476h9.46985c2.36766,0 3.55123,-1.31738 4.73505,-2.63476l1.77548,-1.97477c1.18383,-1.31738 2.36766,-2.63476 4.73505,-2.63476h95.88258c3.15653,0 4.73505,1.75737 4.73505,5.26692v32.91892c0,3.51214 -1.57852,5.26692 -4.73505,5.26692h-95.88258c-2.3674,0 -3.55123,1.31738 -4.73505,2.63476l-1.77548,1.97477c-1.18383,1.31479 -2.3674,2.63217 -4.73505,2.63217h-9.46985c-2.3674,0 -3.55123,-1.31738 -4.7348,-2.63217l-1.77574,-1.97477c-1.18357,-1.31738 -2.3674,-2.63476 -4.7348,-2.63476h-4.73505c-2.61509,0 -4.73505,-2.35782 -4.73505,-5.26692z" fill="none" stroke-opacity="0.25" stroke="#000000" stroke-width="4"/><path d="M216.52332,0.34205c0,-3.50956 1.57834,-5.26692 4.73495,-5.26692h4.73492c2.36748,0 3.55123,1.31738 4.73495,2.63476l1.77559,1.97477c1.18372,1.31738 2.36748,2.63217 4.73495,2.63217h9.46998c2.3674,0 3.55123,-1.31479 4.7348,-2.63217l1.77574,-1.97477c1.18357,-1.31738 2.3674,-2.63476 4.7348,-2.63476h95.88258c3.15679,0 4.73505,1.75737 4.73505,5.26692v32.91892c0,3.51214 -1.57827,5.26692 -4.73505,5.26692h-95.88258c-2.3674,0 -3.55123,1.31738 -4.7348,2.63217l-1.77574,1.97477c-1.18357,1.31738 -2.3674,2.63476 -4.7348,2.63476h-9.46998c-2.36748,0 -3.55125,-1.31738 -4.73495,-2.63476l-1.77559,-1.97477c-1.18375,-1.31479 -2.3675,-2.63217 -4.73495,-2.63217h-4.73492c-2.61506,0 -4.73495,-2.35782 -4.73495,-5.26692z" fill="none" stroke-opacity="0.25" stroke="#000000" stroke-width="4"/><path d="M216.52332,118.3936c0,-3.50956 1.57834,-5.26692 4.73495,-5.26692h4.73492c2.36748,0 3.55123,1.31738 4.73495,2.63476l1.77559,1.97477c1.18372,1.31738 2.36748,2.63217 4.73495,2.63217h9.46998c2.3674,0 3.55123,-1.31479 4.7348,-2.63217l1.77574,-1.97477c1.18357,-1.31738 2.3674,-2.63476 4.7348,-2.63476h95.88258c3.15679,0 4.73505,1.75737 4.73505,5.26692v32.91892c0,3.51214 -1.57827,5.26692 -4.73505,5.26692h-95.88258c-2.3674,0 -3.55123,1.31738 -4.7348,2.63217l-1.77574,1.97736c-1.18357,1.31479 -2.3674,2.63217 -4.7348,2.63217h-9.46998c-2.36748,0 -3.55125,-1.31738 -4.73495,-2.63217l-1.77559,-1.97736c-1.18375,-1.31479 -2.3675,-2.63217 -4.73495,-2.63217h-4.73492c-2.61506,0 -4.73495,-2.35782 -4.73495,-5.26692z" fill="none" stroke-opacity="0.25" stroke="#000000" stroke-width="4"/><path d="M216.52332,236.44514c0,-3.50956 1.57834,-5.26433 4.73495,-5.26433h4.73492c2.36748,0 3.55123,1.31479 4.73495,2.63217l1.77559,1.97477c1.18372,1.31738 2.36748,2.63476 4.73495,2.63476h9.46998c2.3674,0 3.55123,-1.31738 4.7348,-2.63476l1.77574,-1.97477c1.18357,-1.31738 2.3674,-2.63217 4.7348,-2.63217h95.88258c3.15679,0 4.73505,1.75478 4.73505,5.26433v32.91892c0,3.51214 -1.57827,5.26692 -4.73505,5.26692h-95.88258c-2.3674,0 -3.55123,1.31738 -4.7348,2.63476l-1.77574,1.97477c-1.18357,1.31479 -2.3674,2.63217 -4.7348,2.63217h-9.46998c-2.36748,0 -3.55125,-1.31738 -4.73495,-2.63217l-1.77559,-1.97477c-1.18375,-1.31738 -2.3675,-2.63476 -4.73495,-2.63476h-4.73492c-2.61506,0 -4.73495,-2.35782 -4.73495,-5.26692z" fill="none" stroke-opacity="0.25" stroke="#000000" stroke-width="4"/><path d="M216.52332,354.49928c0,-3.51214 1.57834,-5.26692 4.73495,-5.26692h4.73492c2.36748,0 3.55123,1.31479 4.73495,2.63217l1.77559,1.97477c1.18372,1.31738 2.36748,2.63476 4.73495,2.63476h9.46998c2.3674,0 3.55123,-1.31738 4.7348,-2.63476l1.77574,-1.97477c1.18357,-1.31738 2.3674,-2.63217 4.7348,-2.63217h95.88258c3.15679,0 4.73505,1.75478 4.73505,5.26692v32.91633c0,3.51214 -1.57827,5.26692 -4.73505,5.26692h-95.88258c-2.3674,0 -3.55123,1.31738 -4.7348,2.63476l-1.77574,1.97477c-1.18357,1.31738 -2.3674,2.63217 -4.7348,2.63217h-9.46998c-2.36748,0 -3.55125,-1.31479 -4.73495,-2.63217l-1.77559,-1.97477c-1.18375,-1.31738 -2.3675,-2.63476 -4.73495,-2.63476h-4.73492c-2.61506,0 -4.73495,-2.35782 -4.73495,-5.26692z" fill="none" stroke-opacity="0.25" stroke="#000000" stroke-width="4"/><path d="M369.11091,0.34205c0,-3.50956 1.57827,-5.26692 4.7348,-5.26692h4.73505c2.3674,0 3.55123,1.31738 4.73505,2.63476l1.77548,1.97477c1.18383,1.31738 2.3674,2.63217 4.73505,2.63217h9.46985c2.3674,0 3.55123,-1.31479 4.7348,-2.63217l1.77574,-1.97477c1.18357,-1.31738 2.3674,-2.63476 4.7348,-2.63476h95.88336c3.15498,0 4.73376,1.75737 4.73376,5.26692v32.91892c0,3.51214 -1.57878,5.26692 -4.73376,5.26692h-95.88336c-2.3674,0 -3.55123,1.31738 -4.7348,2.63217l-1.77574,1.97477c-1.18357,1.31738 -2.3674,2.63476 -4.7348,2.63476h-9.46985c-2.36766,0 -3.55123,-1.31738 -4.73505,-2.63476l-1.77548,-1.97477c-1.18383,-1.31479 -2.36766,-2.63217 -4.73505,-2.63217h-4.73505c-2.61483,0 -4.7348,-2.35782 -4.7348,-5.26692z" fill="none" stroke-opacity="0.25" stroke="#000000" stroke-width="4"/><path d="M369.11091,118.3936c0,-3.50956 1.57827,-5.26692 4.7348,-5.26692h4.73505c2.3674,0 3.55123,1.31738 4.73505,2.63476l1.77548,1.97477c1.18383,1.31738 2.3674,2.63217 4.73505,2.63217h9.46985c2.3674,0 3.55123,-1.31479 4.7348,-2.63217l1.77574,-1.97477c1.18357,-1.31738 2.3674,-2.63476 4.7348,-2.63476h95.88336c3.15498,0 4.73376,1.75737 4.73376,5.26692v32.91892c0,3.51214 -1.57878,5.26692 -4.73376,5.26692h-95.88336c-2.3674,0 -3.55123,1.31738 -4.7348,2.63217l-1.77574,1.97736c-1.18357,1.31479 -2.3674,2.63217 -4.7348,2.63217h-9.46985c-2.36766,0 -3.55123,-1.31738 -4.73505,-2.63217l-1.77548,-1.97736c-1.18383,-1.31479 -2.36766,-2.63217 -4.73505,-2.63217h-4.73505c-2.61483,0 -4.7348,-2.35782 -4.7348,-5.26692z" fill="none" stroke-opacity="0.25" stroke="#000000" stroke-width="4"/><path d="M369.11091,236.44514c0,-3.50956 1.57827,-5.26433 4.7348,-5.26433h4.73505c2.3674,0 3.55123,1.31479 4.73505,2.63217l1.77548,1.97477c1.18383,1.31738 2.3674,2.63476 4.73505,2.63476h9.46985c2.3674,0 3.55123,-1.31738 4.7348,-2.63476l1.77574,-1.97477c1.18357,-1.31738 2.3674,-2.63217 4.7348,-2.63217h95.88336c3.15498,0 4.73376,1.75478 4.73376,5.26433v32.91892c0,3.51214 -1.57878,5.26692 -4.73376,5.26692h-95.88336c-2.3674,0 -3.55123,1.31738 -4.7348,2.63476l-1.77574,1.97477c-1.18357,1.31479 -2.3674,2.63217 -4.7348,2.63217h-9.46985c-2.36766,0 -3.55123,-1.31738 -4.73505,-2.63217l-1.77548,-1.97477c-1.18383,-1.31738 -2.36766,-2.63476 -4.73505,-2.63476h-4.73505c-2.61483,0 -4.7348,-2.35782 -4.7348,-5.26692z" fill="none" stroke-opacity="0.25" stroke="#000000" stroke-width="4"/><path d="M369.11091,354.49928c0,-3.51214 1.57827,-5.26692 4.7348,-5.26692h4.73505c2.3674,0 3.55123,1.31479 4.73505,2.63217l1.77548,1.97477c1.18383,1.31738 2.3674,2.63476 4.73505,2.63476h9.46985c2.3674,0 3.55123,-1.31738 4.7348,-2.63476l1.77574,-1.97477c1.18357,-1.31738 2.3674,-2.63217 4.7348,-2.63217h95.88336c3.15498,0 4.73376,1.75478 4.73376,5.26692v32.91633c0,3.51214 -1.57878,5.26692 -4.73376,5.26692h-95.88336c-2.3674,0 -3.55123,1.31738 -4.7348,2.63476l-1.77574,1.97477c-1.18357,1.31738 -2.3674,2.63217 -4.7348,2.63217h-9.46985c-2.36766,0 -3.55123,-1.31479 -4.73505,-2.63217l-1.77548,-1.97477c-1.18383,-1.31738 -2.36766,-2.63476 -4.73505,-2.63476h-4.73505c-2.61483,0 -4.7348,-2.35782 -4.7348,-5.26692z" fill="none" stroke-opacity="0.25" stroke="#000000" stroke-width="4"/><path d="M435.68767,59.36783c0,-3.50956 1.57827,-5.26692 4.73505,-5.26692h4.7348c2.3674,0 3.55123,1.31738 4.73505,2.63476l1.77548,1.97477c1.18383,1.31738 2.3674,2.63217 4.73505,2.63217h9.46985c2.3674,0 3.55123,-1.31479 4.7348,-2.63217l1.77574,-1.97477c1.1846,-1.31738 2.3674,-2.63476 4.73557,-2.63476h95.88129c3.15757,0 4.73635,1.75737 4.73635,5.26692v32.91892c0,3.51214 -1.57878,5.26692 -4.73635,5.26692h-95.88129c-2.36817,0 -3.55097,1.31738 -4.73557,2.63217l-1.77574,1.97736c-1.18357,1.31479 -2.3674,2.63217 -4.7348,2.63217h-9.46985c-2.36766,0 -3.55123,-1.31738 -4.73505,-2.63217l-1.77548,-1.97736c-1.18383,-1.31479 -2.36766,-2.63217 -4.73505,-2.63217h-4.7348c-2.61509,0 -4.73505,-2.35782 -4.73505,-5.26692z" fill="none" stroke-opacity="0.25" stroke="#000000" stroke-width="4"/><path d="M435.68767,177.41937c0,-3.50956 1.57827,-5.26692 4.73505,-5.26692h4.7348c2.3674,0 3.55123,1.31738 4.73505,2.63476l1.77548,1.97477c1.18383,1.31738 2.3674,2.63476 4.73505,2.63476h9.46985c2.3674,0 3.55123,-1.31738 4.7348,-2.63476l1.77574,-1.97477c1.1846,-1.31738 2.3674,-2.63476 4.73557,-2.63476h95.88129c3.15757,0 4.73635,1.75737 4.73635,5.26692v32.91892c0,3.51214 -1.57878,5.26692 -4.73635,5.26692h-95.88129c-2.36817,0 -3.55097,1.31738 -4.73557,2.63476l-1.77574,1.97477c-1.18357,1.31479 -2.3674,2.63217 -4.7348,2.63217h-9.46985c-2.36766,0 -3.55123,-1.31738 -4.73505,-2.63217l-1.77548,-1.97477c-1.18383,-1.31738 -2.36766,-2.63476 -4.73505,-2.63476h-4.7348c-2.61509,0 -4.73505,-2.35782 -4.73505,-5.26692z" fill="none" stroke-opacity="0.25" stroke="#000000" stroke-width="4"/><path d="M435.68767,295.47351c0,-3.51214 1.57827,-5.26692 4.73505,-5.26692h4.7348c2.3674,0 3.55123,1.31479 4.73505,2.63217l1.77548,1.97477c1.18383,1.31738 2.3674,2.63476 4.73505,2.63476h9.46985c2.3674,0 3.55123,-1.31738 4.7348,-2.63476l1.77574,-1.97477c1.1846,-1.31738 2.3674,-2.63217 4.73557,-2.63217h95.88129c3.15757,0 4.73635,1.75478 4.73635,5.26692v32.91633c0,3.51214 -1.57878,5.26692 -4.73635,5.26692h-95.88129c-2.36817,0 -3.55097,1.31738 -4.73557,2.63476l-1.77574,1.97477c-1.18357,1.31479 -2.3674,2.63217 -4.7348,2.63217h-9.46985c-2.36766,0 -3.55123,-1.31738 -4.73505,-2.63217l-1.77548,-1.97477c-1.18383,-1.31738 -2.36766,-2.63476 -4.73505,-2.63476h-4.7348c-2.61509,0 -4.73505,-2.35782 -4.73505,-5.26692z" fill="none" stroke-opacity="0.25" stroke="#000000" stroke-width="4"/><path d="M-28.25135,61.36784c0,-3.50956 1.57852,-5.26692 4.73505,-5.26692h4.73505c2.3674,0 3.55123,1.31738 4.7348,2.63476l1.77574,1.97477c1.18357,1.31738 2.3674,2.63217 4.7348,2.63217h9.46985c2.36766,0 3.55123,-1.31479 4.73505,-2.63217l1.77548,-1.97477c1.18383,-1.31738 2.36766,-2.63476 4.73505,-2.63476h95.88258c3.15653,0 4.73505,1.75737 4.73505,5.26692v32.91892c0,3.51214 -1.57852,5.26692 -4.73505,5.26692h-95.88258c-2.3674,0 -3.55123,1.31738 -4.73505,2.63217l-1.77548,1.97736c-1.18383,1.31479 -2.3674,2.63217 -4.73505,2.63217h-9.46985c-2.3674,0 -3.55123,-1.31738 -4.7348,-2.63217l-1.77574,-1.97736c-1.18357,-1.31479 -2.3674,-2.63217 -4.7348,-2.63217h-4.73505c-2.61509,0 -4.73505,-2.35782 -4.73505,-5.26692z" fill="none" stroke-opacity="0.25" stroke="#000000" stroke-width="4"/><path d="M-28.25135,179.41938c0,-3.50956 1.57852,-5.26692 4.73505,-5.26692h4.73505c2.3674,0 3.55123,1.31738 4.7348,2.63476l1.77574,1.97477c1.18357,1.31738 2.3674,2.63217 4.7348,2.63217h9.46985c2.36766,0 3.55123,-1.31479 4.73505,-2.63217l1.77548,-1.97477c1.18383,-1.31738 2.36766,-2.63476 4.73505,-2.63476h95.88258c3.15653,0 4.73505,1.75737 4.73505,5.26692v32.91892c0,3.51214 -1.57852,5.26692 -4.73505,5.26692h-95.88258c-2.3674,0 -3.55123,1.31738 -4.73505,2.63217l-1.77548,1.97736c-1.18383,1.31479 -2.3674,2.63217 -4.73505,2.63217h-9.46985c-2.3674,0 -3.55123,-1.31738 -4.7348,-2.63217l-1.77574,-1.97736c-1.18357,-1.31479 -2.3674,-2.63217 -4.7348,-2.63217h-4.73505c-2.61509,0 -4.73505,-2.35782 -4.73505,-5.26692z" fill="none" stroke-opacity="0.25" stroke="#000000" stroke-width="4"/><path d="M-28.25135,297.47092c0,-3.50956 1.57852,-5.26692 4.73505,-5.26692h4.73505c2.3674,0 3.55123,1.31738 4.7348,2.63476l1.77574,1.97477c1.18357,1.31738 2.3674,2.63476 4.7348,2.63476h9.46985c2.36766,0 3.55123,-1.31738 4.73505,-2.63476l1.77548,-1.97477c1.18383,-1.31738 2.36766,-2.63476 4.73505,-2.63476h95.88258c3.15653,0 4.73505,1.75737 4.73505,5.26692v32.91892c0,3.51214 -1.57852,5.26692 -4.73505,5.26692h-95.88258c-2.3674,0 -3.55123,1.31738 -4.73505,2.63476l-1.77548,1.97477c-1.18383,1.31479 -2.3674,2.63217 -4.73505,2.63217h-9.46985c-2.3674,0 -3.55123,-1.31738 -4.7348,-2.63217l-1.77574,-1.97477c-1.18357,-1.31738 -2.3674,-2.63476 -4.7348,-2.63476h-4.73505c-2.61509,0 -4.73505,-2.35782 -4.73505,-5.26692z" fill="none" stroke-opacity="0.25" stroke="#000000" stroke-width="4"/><path d="M-94.47668,2.34206c0,-3.50956 1.57834,-5.26692 4.73495,-5.26692h4.73492c2.36748,0 3.55123,1.31738 4.73495,2.63476l1.77559,1.97477c1.18372,1.31738 2.36748,2.63217 4.73495,2.63217h9.46998c2.3674,0 3.55123,-1.31479 4.7348,-2.63217l1.77574,-1.97477c1.18357,-1.31738 2.3674,-2.63476 4.7348,-2.63476h95.88258c3.15679,0 4.73505,1.75737 4.73505,5.26692v32.91892c0,3.51214 -1.57827,5.26692 -4.73505,5.26692h-95.88258c-2.3674,0 -3.55123,1.31738 -4.7348,2.63217l-1.77574,1.97477c-1.18357,1.31738 -2.3674,2.63476 -4.7348,2.63476h-9.46998c-2.36748,0 -3.55125,-1.31738 -4.73495,-2.63476l-1.77559,-1.97477c-1.18375,-1.31479 -2.3675,-2.63217 -4.73495,-2.63217h-4.73492c-2.61506,0 -4.73495,-2.35782 -4.73495,-5.26692z" fill="none" stroke-opacity="0.25" stroke="#000000" stroke-width="4"/><path d="M-94.47668,120.3936c0,-3.50956 1.57834,-5.26692 4.73495,-5.26692h4.73492c2.36748,0 3.55123,1.31738 4.73495,2.63476l1.77559,1.97477c1.18372,1.31738 2.36748,2.63217 4.73495,2.63217h9.46998c2.3674,0 3.55123,-1.31479 4.7348,-2.63217l1.77574,-1.97477c1.18357,-1.31738 2.3674,-2.63476 4.7348,-2.63476h95.88258c3.15679,0 4.73505,1.75737 4.73505,5.26692v32.91892c0,3.51214 -1.57827,5.26692 -4.73505,5.26692h-95.88258c-2.3674,0 -3.55123,1.31738 -4.7348,2.63217l-1.77574,1.97736c-1.18357,1.31479 -2.3674,2.63217 -4.7348,2.63217h-9.46998c-2.36748,0 -3.55125,-1.31738 -4.73495,-2.63217l-1.77559,-1.97736c-1.18375,-1.31479 -2.3675,-2.63217 -4.73495,-2.63217h-4.73492c-2.61506,0 -4.73495,-2.35782 -4.73495,-5.26692z" fill="none" stroke-opacity="0.25" stroke="#000000" stroke-width="4"/><path d="M-94.47668,238.44515c0,-3.50956 1.57834,-5.26433 4.73495,-5.26433h4.73492c2.36748,0 3.55123,1.31479 4.73495,2.63217l1.77559,1.97477c1.18372,1.31738 2.36748,2.63476 4.73495,2.63476h9.46998c2.3674,0 3.55123,-1.31738 4.7348,-2.63476l1.77574,-1.97477c1.18357,-1.31738 2.3674,-2.63217 4.7348,-2.63217h95.88258c3.15679,0 4.73505,1.75478 4.73505,5.26433v32.91892c0,3.51214 -1.57827,5.26692 -4.73505,5.26692h-95.88258c-2.3674,0 -3.55123,1.31738 -4.7348,2.63476l-1.77574,1.97477c-1.18357,1.31479 -2.3674,2.63217 -4.7348,2.63217h-9.46998c-2.36748,0 -3.55125,-1.31738 -4.73495,-2.63217l-1.77559,-1.97477c-1.18375,-1.31738 -2.3675,-2.63476 -4.73495,-2.63476h-4.73492c-2.61506,0 -4.73495,-2.35782 -4.73495,-5.26692z" fill="none" stroke-opacity="0.25" stroke="#000000" stroke-width="4"/><path d="M-94.47668,356.49928c0,-3.51214 1.57834,-5.26692 4.73495,-5.26692h4.73492c2.36748,0 3.55123,1.31479 4.73495,2.63217l1.77559,1.97477c1.18372,1.31738 2.36748,2.63476 4.73495,2.63476h9.46998c2.3674,0 3.55123,-1.31738 4.7348,-2.63476l1.77574,-1.97477c1.18357,-1.31738 2.3674,-2.63217 4.7348,-2.63217h95.88258c3.15679,0 4.73505,1.75478 4.73505,5.26692v32.91633c0,3.51214 -1.57827,5.26692 -4.73505,5.26692h-95.88258c-2.3674,0 -3.55123,1.31738 -4.7348,2.63476l-1.77574,1.97477c-1.18357,1.31738 -2.3674,2.63217 -4.7348,2.63217h-9.46998c-2.36748,0 -3.55125,-1.31479 -4.73495,-2.63217l-1.77559,-1.97477c-1.18375,-1.31738 -2.3675,-2.63476 -4.73495,-2.63476h-4.73492c-2.61506,0 -4.73495,-2.35782 -4.73495,-5.26692z" fill="none" stroke-opacity="0.25" stroke="#000000" stroke-width="4"/><path d="M58.11091,2.34206c0,-3.50956 1.57827,-5.26692 4.7348,-5.26692h4.73505c2.3674,0 3.55123,1.31738 4.73505,2.63476l1.77548,1.97477c1.18383,1.31738 2.3674,2.63217 4.73505,2.63217h9.46985c2.3674,0 3.55123,-1.31479 4.7348,-2.63217l1.77574,-1.97477c1.18357,-1.31738 2.3674,-2.63476 4.7348,-2.63476h95.88336c3.15498,0 4.73376,1.75737 4.73376,5.26692v32.91892c0,3.51214 -1.57878,5.26692 -4.73376,5.26692h-95.88336c-2.3674,0 -3.55123,1.31738 -4.7348,2.63217l-1.77574,1.97477c-1.18357,1.31738 -2.3674,2.63476 -4.7348,2.63476h-9.46985c-2.36766,0 -3.55123,-1.31738 -4.73505,-2.63476l-1.77548,-1.97477c-1.18383,-1.31479 -2.36766,-2.63217 -4.73505,-2.63217h-4.73505c-2.61483,0 -4.7348,-2.35782 -4.7348,-5.26692z" fill="none" stroke-opacity="0.25" stroke="#000000" stroke-width="4"/><path d="M58.11091,120.3936c0,-3.50956 1.57827,-5.26692 4.7348,-5.26692h4.73505c2.3674,0 3.55123,1.31738 4.73505,2.63476l1.77548,1.97477c1.18383,1.31738 2.3674,2.63217 4.73505,2.63217h9.46985c2.3674,0 3.55123,-1.31479 4.7348,-2.63217l1.77574,-1.97477c1.18357,-1.31738 2.3674,-2.63476 4.7348,-2.63476h95.88336c3.15498,0 4.73376,1.75737 4.73376,5.26692v32.91892c0,3.51214 -1.57878,5.26692 -4.73376,5.26692h-95.88336c-2.3674,0 -3.55123,1.31738 -4.7348,2.63217l-1.77574,1.97736c-1.18357,1.31479 -2.3674,2.63217 -4.7348,2.63217h-9.46985c-2.36766,0 -3.55123,-1.31738 -4.73505,-2.63217l-1.77548,-1.97736c-1.18383,-1.31479 -2.36766,-2.63217 -4.73505,-2.63217h-4.73505c-2.61483,0 -4.7348,-2.35782 -4.7348,-5.26692z" fill="none" stroke-opacity="0.25" stroke="#000000" stroke-width="4"/><path d="M58.11091,238.44515c0,-3.50956 1.57827,-5.26433 4.7348,-5.26433h4.73505c2.3674,0 3.55123,1.31479 4.73505,2.63217l1.77548,1.97477c1.18383,1.31738 2.3674,2.63476 4.73505,2.63476h9.46985c2.3674,0 3.55123,-1.31738 4.7348,-2.63476l1.77574,-1.97477c1.18357,-1.31738 2.3674,-2.63217 4.7348,-2.63217h95.88336c3.15498,0 4.73376,1.75478 4.73376,5.26433v32.91892c0,3.51214 -1.57878,5.26692 -4.73376,5.26692h-95.88336c-2.3674,0 -3.55123,1.31738 -4.7348,2.63476l-1.77574,1.97477c-1.18357,1.31479 -2.3674,2.63217 -4.7348,2.63217h-9.46985c-2.36766,0 -3.55123,-1.31738 -4.73505,-2.63217l-1.77548,-1.97477c-1.18383,-1.31738 -2.36766,-2.63476 -4.73505,-2.63476h-4.73505c-2.61483,0 -4.7348,-2.35782 -4.7348,-5.26692z" fill="none" stroke-opacity="0.25" stroke="#000000" stroke-width="4"/><path d="M58.11091,356.49928c0,-3.51214 1.57827,-5.26692 4.7348,-5.26692h4.73505c2.3674,0 3.55123,1.31479 4.73505,2.63217l1.77548,1.97477c1.18383,1.31738 2.3674,2.63476 4.73505,2.63476h9.46985c2.3674,0 3.55123,-1.31738 4.7348,-2.63476l1.77574,-1.97477c1.18357,-1.31738 2.3674,-2.63217 4.7348,-2.63217h95.88336c3.15498,0 4.73376,1.75478 4.73376,5.26692v32.91633c0,3.51214 -1.57878,5.26692 -4.73376,5.26692h-95.88336c-2.3674,0 -3.55123,1.31738 -4.7348,2.63476l-1.77574,1.97477c-1.18357,1.31738 -2.3674,2.63217 -4.7348,2.63217h-9.46985c-2.36766,0 -3.55123,-1.31479 -4.73505,-2.63217l-1.77548,-1.97477c-1.18383,-1.31738 -2.36766,-2.63476 -4.73505,-2.63476h-4.73505c-2.61483,0 -4.7348,-2.35782 -4.7348,-5.26692z" fill="none" stroke-opacity="0.25" stroke="#000000" stroke-width="4"/><path d="M124.68767,61.36784c0,-3.50956 1.57827,-5.26692 4.73505,-5.26692h4.7348c2.3674,0 3.55123,1.31738 4.73505,2.63476l1.77548,1.97477c1.18383,1.31738 2.3674,2.63217 4.73505,2.63217h9.46985c2.3674,0 3.55123,-1.31479 4.7348,-2.63217l1.77574,-1.97477c1.1846,-1.31738 2.3674,-2.63476 4.73557,-2.63476h95.88129c3.15757,0 4.73635,1.75737 4.73635,5.26692v32.91892c0,3.51214 -1.57878,5.26692 -4.73635,5.26692h-95.88129c-2.36817,0 -3.55097,1.31738 -4.73557,2.63217l-1.77574,1.97736c-1.18357,1.31479 -2.3674,2.63217 -4.7348,2.63217h-9.46985c-2.36766,0 -3.55123,-1.31738 -4.73505,-2.63217l-1.77548,-1.97736c-1.18383,-1.31479 -2.36766,-2.63217 -4.73505,-2.63217h-4.7348c-2.61509,0 -4.73505,-2.35782 -4.73505,-5.26692z" fill="none" stroke-opacity="0.25" stroke="#000000" stroke-width="4"/><path d="M124.68767,179.41938c0,-3.50956 1.57827,-5.26692 4.73505,-5.26692h4.7348c2.3674,0 3.55123,1.31738 4.73505,2.63476l1.77548,1.97477c1.18383,1.31738 2.3674,2.63476 4.73505,2.63476h9.46985c2.3674,0 3.55123,-1.31738 4.7348,-2.63476l1.77574,-1.97477c1.1846,-1.31738 2.3674,-2.63476 4.73557,-2.63476h95.88129c3.15757,0 4.73635,1.75737 4.73635,5.26692v32.91892c0,3.51214 -1.57878,5.26692 -4.73635,5.26692h-95.88129c-2.36817,0 -3.55097,1.31738 -4.73557,2.63476l-1.77574,1.97477c-1.18357,1.31479 -2.3674,2.63217 -4.7348,2.63217h-9.46985c-2.36766,0 -3.55123,-1.31738 -4.73505,-2.63217l-1.77548,-1.97477c-1.18383,-1.31738 -2.36766,-2.63476 -4.73505,-2.63476h-4.7348c-2.61509,0 -4.73505,-2.35782 -4.73505,-5.26692z" fill="none" stroke-opacity="0.25" stroke="#000000" stroke-width="4"/><path d="M124.68767,297.47351c0,-3.51214 1.57827,-5.26692 4.73505,-5.26692h4.7348c2.3674,0 3.55123,1.31479 4.73505,2.63217l1.77548,1.97477c1.18383,1.31738 2.3674,2.63476 4.73505,2.63476h9.46985c2.3674,0 3.55123,-1.31738 4.7348,-2.63476l1.77574,-1.97477c1.1846,-1.31738 2.3674,-2.63217 4.73557,-2.63217h95.88129c3.15757,0 4.73635,1.75478 4.73635,5.26692v32.91633c0,3.51214 -1.57878,5.26692 -4.73635,5.26692h-95.88129c-2.36817,0 -3.55097,1.31738 -4.73557,2.63476l-1.77574,1.97477c-1.18357,1.31479 -2.3674,2.63217 -4.7348,2.63217h-9.46985c-2.36766,0 -3.55123,-1.31738 -4.73505,-2.63217l-1.77548,-1.97477c-1.18383,-1.31738 -2.36766,-2.63476 -4.73505,-2.63476h-4.7348c-2.61509,0 -4.73505,-2.35782 -4.73505,-5.26692z" fill="none" stroke-opacity="0.25" stroke="#000000" stroke-width="4"/></g></g></svg>
